{
	"asset":{
		"generator":"Khronos glTF Blender I/O v4.1.63",
		"version":"2.0"
	},
	"extensionsUsed":[
		"KHR_materials_specular",
		"KHR_materials_sheen",
		"KHR_materials_ior"
	],
	"scene":0,
	"scenes":[
		{
			"name":"Scene",
			"nodes":[
				0
			]
		}
	],
	"nodes":[
		{
			"mesh":0,
			"name":"cadre",
			"rotation":[
				-0.4990977346897125,
				-0.5008092522621155,
				-0.49918946623802185,
				0.5009006261825562
			],
			"scale":[
				-0.0010000000474974513,
				-0.0010000000474974513,
				-0.0009999999310821295
			],
			"translation":[
				0,
				0.2698812782764435,
				0
			]
		}
	],
	"materials":[
		{
			"doubleSided":true,
			"extensions":{
				"KHR_materials_specular":{
					"specularColorFactor":[
						2.0,
						2.0,
						2.0
					]
				},
				"KHR_materials_sheen":{
					"sheenColorFactor":[
						1.0,
						1.0,
						1.0
					],
					"sheenRoughnessFactor":0.5
				},
				"KHR_materials_ior":{
					"ior":1.4500000476837158
				}
			},
			"name":"cadre",
			"pbrMetallicRoughness":{
				"metallicFactor":0,
				"roughnessFactor":0.5
			}
		},
		{
			"name":"tableau",
			"pbrMetallicRoughness":{
				"baseColorTexture":{
					"index":0
				},
				"metallicFactor":0,
				"roughnessFactor":0.5
			}
		}
	],
	"meshes":[
		{
			"name":"cadre",
			"primitives":[
				{
					"attributes":{
						"POSITION":0,
						"NORMAL":1,
						"TEXCOORD_0":2
					},
					"indices":3,
					"material":0
				},
				{
					"attributes":{
						"POSITION":4,
						"NORMAL":5,
						"TEXCOORD_0":6
					},
					"indices":7,
					"material":1
				}
			]
		}
	],
	"textures":[
		{
			"sampler":0,
			"source":0
		}
	],
	"images":[
		{
			"mimeType":"image/jpeg",
			"name":"Jeune-fille-devant-un-miroir",
			"uri":"Jeune-fille-devant-un-miroir.jpg"
		}
	],
	"accessors":[
		{
			"bufferView":0,
			"componentType":5126,
			"count":4475,
			"max":[
				61.0981330871582,
				235.16281127929688,
				4.448297023773193
			],
			"min":[
				-9.556573867797852,
				-222.18438720703125,
				-542.5398559570312
			],
			"type":"VEC3"
		},
		{
			"bufferView":1,
			"componentType":5126,
			"count":4475,
			"type":"VEC3"
		},
		{
			"bufferView":2,
			"componentType":5126,
			"count":4475,
			"type":"VEC2"
		},
		{
			"bufferView":3,
			"componentType":5123,
			"count":4605,
			"type":"SCALAR"
		},
		{
			"bufferView":4,
			"componentType":5126,
			"count":4,
			"max":[
				-6.681709289550781,
				142.80416870117188,
				-72.99781036376953
			],
			"min":[
				-6.753152847290039,
				-133.44520568847656,
				-464.4111022949219
			],
			"type":"VEC3"
		},
		{
			"bufferView":5,
			"componentType":5126,
			"count":4,
			"type":"VEC3"
		},
		{
			"bufferView":6,
			"componentType":5126,
			"count":4,
			"type":"VEC2"
		},
		{
			"bufferView":7,
			"componentType":5123,
			"count":6,
			"type":"SCALAR"
		}
	],
	"bufferViews":[
		{
			"buffer":0,
			"byteLength":53700,
			"byteOffset":0,
			"target":34962
		},
		{
			"buffer":0,
			"byteLength":53700,
			"byteOffset":53700,
			"target":34962
		},
		{
			"buffer":0,
			"byteLength":35800,
			"byteOffset":107400,
			"target":34962
		},
		{
			"buffer":0,
			"byteLength":9210,
			"byteOffset":143200,
			"target":34963
		},
		{
			"buffer":0,
			"byteLength":48,
			"byteOffset":152412,
			"target":34962
		},
		{
			"buffer":0,
			"byteLength":48,
			"byteOffset":152460,
			"target":34962
		},
		{
			"buffer":0,
			"byteLength":32,
			"byteOffset":152508,
			"target":34962
		},
		{
			"buffer":0,
			"byteLength":12,
			"byteOffset":152540,
			"target":34963
		}
	],
	"samplers":[
		{
			"magFilter":9729,
			"minFilter":9987
		}
	],
	"buffers":[
		{
			"byteLength":152552,
			"uri":"tableau.bin"
		}
	]
}
